<mxfile host="app.diagrams.net" modified="2024-10-04T14:53:16.693Z" agent="Mozilla/5.0 (Windows NT 10.0; Win64; x64) AppleWebKit/537.36 (KHTML, like Gecko) Chrome/129.0.0.0 Safari/537.36" etag="iN9C_Lq2qe-DRW_5hyLE" version="21.7.4" type="device">
  <diagram name="Page-1" id="BOFQhIm2D2g_-B_I5kOV">
    <mxGraphModel dx="1444" dy="764" grid="1" gridSize="10" guides="1" tooltips="1" connect="1" arrows="1" fold="1" page="1" pageScale="1" pageWidth="850" pageHeight="1100" math="0" shadow="0">
      <root>
        <mxCell id="0" />
        <mxCell id="1" parent="0" />
        <mxCell id="fQ9dlBRiMaqF3TeSZdRr-10" value="" style="shape=image;html=1;verticalAlign=top;verticalLabelPosition=bottom;labelBackgroundColor=#ffffff;imageAspect=0;aspect=fixed;image=https://cdn2.iconfinder.com/data/icons/electronic-13/480/3-electronic-arduino-chipset-icon-2-128.png" vertex="1" parent="1">
          <mxGeometry x="30.000000000000004" y="240" width="238" height="238" as="geometry" />
        </mxCell>
        <mxCell id="fQ9dlBRiMaqF3TeSZdRr-6" value="" style="whiteSpace=wrap;html=1;aspect=fixed;fillColor=#f8cecc;strokeColor=#b85450;" vertex="1" parent="1">
          <mxGeometry x="320" y="56" width="270" height="270" as="geometry" />
        </mxCell>
        <mxCell id="fQ9dlBRiMaqF3TeSZdRr-1" value="" style="shape=image;html=1;verticalAlign=top;verticalLabelPosition=bottom;labelBackgroundColor=#ffffff;imageAspect=0;aspect=fixed;image=https://cdn1.iconfinder.com/data/icons/fruit-136/64/Fruit_iconfree_Filled_Outline_raspberry-healthy-organic-food-fruit_icon-128.png;opacity=30;" vertex="1" parent="1">
          <mxGeometry x="370" y="110" width="188" height="188" as="geometry" />
        </mxCell>
        <mxCell id="fQ9dlBRiMaqF3TeSZdRr-2" value="" style="sketch=0;outlineConnect=0;fontColor=#232F3E;gradientColor=none;fillColor=#7AA116;strokeColor=none;dashed=0;verticalLabelPosition=bottom;verticalAlign=top;align=center;html=1;fontSize=12;fontStyle=0;aspect=fixed;pointerEvents=1;shape=mxgraph.aws4.mqtt_protocol;" vertex="1" parent="1">
          <mxGeometry x="360" y="240" width="58" height="58" as="geometry" />
        </mxCell>
        <mxCell id="fQ9dlBRiMaqF3TeSZdRr-7" value="" style="group" vertex="1" connectable="0" parent="1">
          <mxGeometry x="30.000000000000004" y="20" width="238" height="238" as="geometry" />
        </mxCell>
        <mxCell id="fQ9dlBRiMaqF3TeSZdRr-4" value="" style="shape=image;html=1;verticalAlign=top;verticalLabelPosition=bottom;labelBackgroundColor=#ffffff;imageAspect=0;aspect=fixed;image=https://cdn2.iconfinder.com/data/icons/electronic-13/480/3-electronic-arduino-chipset-icon-2-128.png" vertex="1" parent="fQ9dlBRiMaqF3TeSZdRr-7">
          <mxGeometry width="238" height="238" as="geometry" />
        </mxCell>
        <mxCell id="fQ9dlBRiMaqF3TeSZdRr-3" value="" style="dashed=0;outlineConnect=0;html=1;align=center;labelPosition=center;verticalLabelPosition=bottom;verticalAlign=top;shape=mxgraph.weblogos.arduino;fillColor=#36868D;strokeColor=none" vertex="1" parent="fQ9dlBRiMaqF3TeSZdRr-7">
          <mxGeometry x="85.3" y="103" width="67.4" height="32" as="geometry" />
        </mxCell>
        <mxCell id="fQ9dlBRiMaqF3TeSZdRr-11" value="" style="image;html=1;image=img/lib/clip_art/networking/Wireless_Router_128x128.png" vertex="1" parent="1">
          <mxGeometry x="230" y="210" width="80" height="80" as="geometry" />
        </mxCell>
        <mxCell id="fQ9dlBRiMaqF3TeSZdRr-12" value="" style="shape=image;html=1;verticalAlign=top;verticalLabelPosition=bottom;labelBackgroundColor=#ffffff;imageAspect=0;aspect=fixed;image=https://cdn1.iconfinder.com/data/icons/ionicons-fill-vol-2/512/logo-python-128.png" vertex="1" parent="1">
          <mxGeometry x="320" y="56" width="128" height="128" as="geometry" />
        </mxCell>
        <mxCell id="fQ9dlBRiMaqF3TeSZdRr-13" value="" style="html=1;shadow=0;dashed=0;align=center;verticalAlign=middle;shape=mxgraph.arrows2.bendDoubleArrow;dy=15;dx=38;arrowHead=55;rounded=1;rotation=135;fillColor=#fff2cc;strokeColor=#d6b656;" vertex="1" parent="1">
          <mxGeometry x="375" y="154" width="100" height="100" as="geometry" />
        </mxCell>
        <mxCell id="fQ9dlBRiMaqF3TeSZdRr-14" value="" style="shape=flexArrow;endArrow=classic;startArrow=classic;html=1;rounded=0;fillColor=#fff2cc;strokeColor=#d6b656;" edge="1" parent="1" source="fQ9dlBRiMaqF3TeSZdRr-9" target="fQ9dlBRiMaqF3TeSZdRr-2">
          <mxGeometry width="100" height="100" relative="1" as="geometry">
            <mxPoint x="240" y="360" as="sourcePoint" />
            <mxPoint x="340" y="260" as="targetPoint" />
          </mxGeometry>
        </mxCell>
        <mxCell id="fQ9dlBRiMaqF3TeSZdRr-9" value="" style="dashed=0;outlineConnect=0;html=1;align=center;labelPosition=center;verticalLabelPosition=bottom;verticalAlign=top;shape=mxgraph.weblogos.arduino;fillColor=#36868D;strokeColor=none" vertex="1" parent="1">
          <mxGeometry x="115.3" y="343" width="67.4" height="32" as="geometry" />
        </mxCell>
        <mxCell id="fQ9dlBRiMaqF3TeSZdRr-15" value="" style="shape=flexArrow;endArrow=classic;startArrow=classic;html=1;rounded=0;fillColor=#fff2cc;strokeColor=#d6b656;" edge="1" parent="1" source="fQ9dlBRiMaqF3TeSZdRr-3" target="fQ9dlBRiMaqF3TeSZdRr-2">
          <mxGeometry width="100" height="100" relative="1" as="geometry">
            <mxPoint x="210" y="190" as="sourcePoint" />
            <mxPoint x="310" y="90" as="targetPoint" />
          </mxGeometry>
        </mxCell>
        <mxCell id="fQ9dlBRiMaqF3TeSZdRr-16" value="" style="shape=image;html=1;verticalAlign=top;verticalLabelPosition=bottom;labelBackgroundColor=#ffffff;imageAspect=0;aspect=fixed;image=https://cdn2.iconfinder.com/data/icons/electronic-13/480/3-electronic-arduino-chipset-icon-2-128.png" vertex="1" parent="1">
          <mxGeometry x="270" y="360" width="238" height="238" as="geometry" />
        </mxCell>
        <mxCell id="fQ9dlBRiMaqF3TeSZdRr-17" value="" style="dashed=0;outlineConnect=0;html=1;align=center;labelPosition=center;verticalLabelPosition=bottom;verticalAlign=top;shape=mxgraph.weblogos.arduino;fillColor=#36868D;strokeColor=none" vertex="1" parent="1">
          <mxGeometry x="355.3" y="463" width="67.4" height="32" as="geometry" />
        </mxCell>
        <mxCell id="fQ9dlBRiMaqF3TeSZdRr-18" value="" style="shape=flexArrow;endArrow=classic;startArrow=classic;html=1;rounded=0;fillColor=#fff2cc;strokeColor=#d6b656;" edge="1" parent="1" source="fQ9dlBRiMaqF3TeSZdRr-17" target="fQ9dlBRiMaqF3TeSZdRr-2">
          <mxGeometry width="100" height="100" relative="1" as="geometry">
            <mxPoint x="360" y="420" as="sourcePoint" />
            <mxPoint x="460" y="320" as="targetPoint" />
          </mxGeometry>
        </mxCell>
        <mxCell id="fQ9dlBRiMaqF3TeSZdRr-19" value="" style="shape=image;html=1;verticalAlign=top;verticalLabelPosition=bottom;labelBackgroundColor=#ffffff;imageAspect=0;aspect=fixed;image=https://cdn2.iconfinder.com/data/icons/electronic-13/480/3-electronic-arduino-chipset-icon-2-128.png" vertex="1" parent="1">
          <mxGeometry x="475" y="360" width="238" height="238" as="geometry" />
        </mxCell>
        <mxCell id="fQ9dlBRiMaqF3TeSZdRr-20" value="" style="dashed=0;outlineConnect=0;html=1;align=center;labelPosition=center;verticalLabelPosition=bottom;verticalAlign=top;shape=mxgraph.weblogos.arduino;fillColor=#36868D;strokeColor=none" vertex="1" parent="1">
          <mxGeometry x="560.3" y="463" width="67.4" height="32" as="geometry" />
        </mxCell>
        <mxCell id="fQ9dlBRiMaqF3TeSZdRr-21" value="" style="shape=flexArrow;endArrow=classic;startArrow=classic;html=1;rounded=0;fillColor=#fff2cc;strokeColor=#d6b656;" edge="1" parent="1" source="fQ9dlBRiMaqF3TeSZdRr-2" target="fQ9dlBRiMaqF3TeSZdRr-20">
          <mxGeometry width="100" height="100" relative="1" as="geometry">
            <mxPoint x="360" y="420" as="sourcePoint" />
            <mxPoint x="710" y="300" as="targetPoint" />
          </mxGeometry>
        </mxCell>
        <mxCell id="fQ9dlBRiMaqF3TeSZdRr-22" value="" style="shape=image;html=1;verticalAlign=top;verticalLabelPosition=bottom;labelBackgroundColor=#ffffff;imageAspect=0;aspect=fixed;image=https://cdn2.iconfinder.com/data/icons/electronic-13/480/3-electronic-arduino-chipset-icon-2-128.png" vertex="1" parent="1">
          <mxGeometry x="600" y="170" width="238" height="238" as="geometry" />
        </mxCell>
        <mxCell id="fQ9dlBRiMaqF3TeSZdRr-23" value="" style="dashed=0;outlineConnect=0;html=1;align=center;labelPosition=center;verticalLabelPosition=bottom;verticalAlign=top;shape=mxgraph.weblogos.arduino;fillColor=#36868D;strokeColor=none" vertex="1" parent="1">
          <mxGeometry x="685.3" y="273" width="67.4" height="32" as="geometry" />
        </mxCell>
        <mxCell id="fQ9dlBRiMaqF3TeSZdRr-24" value="" style="shape=flexArrow;endArrow=classic;startArrow=classic;html=1;rounded=0;fillColor=#fff2cc;strokeColor=#d6b656;" edge="1" parent="1" source="fQ9dlBRiMaqF3TeSZdRr-2" target="fQ9dlBRiMaqF3TeSZdRr-23">
          <mxGeometry width="100" height="100" relative="1" as="geometry">
            <mxPoint x="360" y="350" as="sourcePoint" />
            <mxPoint x="460" y="250" as="targetPoint" />
          </mxGeometry>
        </mxCell>
      </root>
    </mxGraphModel>
  </diagram>
</mxfile>
